<mxfile host="app.diagrams.net" modified="2023-11-29T00:35:13.158Z" agent="Mozilla/5.0 (Windows NT 10.0; Win64; x64; rv:120.0) Gecko/20100101 Firefox/120.0" etag="d8Xy7k-YjICtiv4Zf_ts" version="22.1.4" type="github">
  <diagram id="C5RBs43oDa-KdzZeNtuy" name="Page-1">
    <mxGraphModel dx="1000" dy="1719" grid="1" gridSize="10" guides="1" tooltips="1" connect="1" arrows="1" fold="1" page="1" pageScale="1" pageWidth="827" pageHeight="1169" math="0" shadow="0">
      <root>
        <mxCell id="WIyWlLk6GJQsqaUBKTNV-0" />
        <mxCell id="WIyWlLk6GJQsqaUBKTNV-1" parent="WIyWlLk6GJQsqaUBKTNV-0" />
        <mxCell id="Y4HFZgV6K_6ebCtTfJm--6" value="" style="edgeStyle=orthogonalEdgeStyle;rounded=0;orthogonalLoop=1;jettySize=auto;html=1;" edge="1" parent="WIyWlLk6GJQsqaUBKTNV-1" source="Y4HFZgV6K_6ebCtTfJm--0" target="Y4HFZgV6K_6ebCtTfJm--5">
          <mxGeometry relative="1" as="geometry" />
        </mxCell>
        <mxCell id="Y4HFZgV6K_6ebCtTfJm--0" value="&lt;div&gt;&lt;br&gt;&lt;/div&gt;&lt;div&gt;CS Pall Start&lt;/div&gt;&lt;div&gt;&lt;br&gt;&lt;/div&gt;" style="html=1;whiteSpace=wrap;container=1;recursiveResize=0;collapsible=0;" vertex="1" parent="WIyWlLk6GJQsqaUBKTNV-1">
          <mxGeometry x="50" y="-30" width="160" height="70" as="geometry" />
        </mxCell>
        <mxCell id="Y4HFZgV6K_6ebCtTfJm--1" value="" style="triangle;html=1;whiteSpace=wrap;" vertex="1" parent="Y4HFZgV6K_6ebCtTfJm--0">
          <mxGeometry x="20" y="20" width="20" height="30" as="geometry" />
        </mxCell>
        <mxCell id="Y4HFZgV6K_6ebCtTfJm--15" style="edgeStyle=orthogonalEdgeStyle;rounded=0;orthogonalLoop=1;jettySize=auto;html=1;exitX=0.5;exitY=1;exitDx=0;exitDy=0;" edge="1" parent="WIyWlLk6GJQsqaUBKTNV-1" source="Y4HFZgV6K_6ebCtTfJm--5" target="Y4HFZgV6K_6ebCtTfJm--11">
          <mxGeometry relative="1" as="geometry" />
        </mxCell>
        <mxCell id="Y4HFZgV6K_6ebCtTfJm--17" style="edgeStyle=orthogonalEdgeStyle;rounded=0;orthogonalLoop=1;jettySize=auto;html=1;exitX=1;exitY=0.5;exitDx=0;exitDy=0;" edge="1" parent="WIyWlLk6GJQsqaUBKTNV-1" source="Y4HFZgV6K_6ebCtTfJm--5" target="Y4HFZgV6K_6ebCtTfJm--13">
          <mxGeometry relative="1" as="geometry" />
        </mxCell>
        <mxCell id="Y4HFZgV6K_6ebCtTfJm--5" value="Log in Screen" style="rhombus;whiteSpace=wrap;html=1;" vertex="1" parent="WIyWlLk6GJQsqaUBKTNV-1">
          <mxGeometry x="272.5" y="-38.75" width="95" height="87.5" as="geometry" />
        </mxCell>
        <mxCell id="Y4HFZgV6K_6ebCtTfJm--9" value="" style="shape=xor;whiteSpace=wrap;html=1;" vertex="1" parent="WIyWlLk6GJQsqaUBKTNV-1">
          <mxGeometry x="380" y="110" width="40" height="60" as="geometry" />
        </mxCell>
        <mxCell id="Y4HFZgV6K_6ebCtTfJm--48" style="edgeStyle=orthogonalEdgeStyle;rounded=0;orthogonalLoop=1;jettySize=auto;html=1;exitX=0;exitY=0.5;exitDx=0;exitDy=0;" edge="1" parent="WIyWlLk6GJQsqaUBKTNV-1" source="Y4HFZgV6K_6ebCtTfJm--11" target="Y4HFZgV6K_6ebCtTfJm--47">
          <mxGeometry relative="1" as="geometry" />
        </mxCell>
        <mxCell id="Y4HFZgV6K_6ebCtTfJm--11" value="Login" style="ellipse;whiteSpace=wrap;html=1;" vertex="1" parent="WIyWlLk6GJQsqaUBKTNV-1">
          <mxGeometry x="270" y="110" width="100" height="60" as="geometry" />
        </mxCell>
        <mxCell id="Y4HFZgV6K_6ebCtTfJm--43" style="edgeStyle=orthogonalEdgeStyle;rounded=0;orthogonalLoop=1;jettySize=auto;html=1;exitX=0.5;exitY=1;exitDx=0;exitDy=0;" edge="1" parent="WIyWlLk6GJQsqaUBKTNV-1" source="Y4HFZgV6K_6ebCtTfJm--13" target="Y4HFZgV6K_6ebCtTfJm--31">
          <mxGeometry relative="1" as="geometry" />
        </mxCell>
        <mxCell id="Y4HFZgV6K_6ebCtTfJm--13" value="&lt;div&gt;Signup&lt;/div&gt;" style="ellipse;whiteSpace=wrap;html=1;" vertex="1" parent="WIyWlLk6GJQsqaUBKTNV-1">
          <mxGeometry x="430" y="110" width="100" height="60" as="geometry" />
        </mxCell>
        <mxCell id="Y4HFZgV6K_6ebCtTfJm--31" value="&lt;div&gt;Userdata Collection&lt;/div&gt;" style="swimlane;fontStyle=0;childLayout=stackLayout;horizontal=1;startSize=30;horizontalStack=0;resizeParent=1;resizeParentMax=0;resizeLast=0;collapsible=1;marginBottom=0;whiteSpace=wrap;html=1;" vertex="1" parent="WIyWlLk6GJQsqaUBKTNV-1">
          <mxGeometry x="410" y="230" width="140" height="210" as="geometry">
            <mxRectangle x="250" y="310" width="140" height="30" as="alternateBounds" />
          </mxGeometry>
        </mxCell>
        <mxCell id="Y4HFZgV6K_6ebCtTfJm--32" value="First name&lt;span style=&quot;white-space: pre;&quot;&gt;&#x9;&lt;/span&gt;" style="text;strokeColor=none;fillColor=none;align=left;verticalAlign=middle;spacingLeft=4;spacingRight=4;overflow=hidden;points=[[0,0.5],[1,0.5]];portConstraint=eastwest;rotatable=0;whiteSpace=wrap;html=1;" vertex="1" parent="Y4HFZgV6K_6ebCtTfJm--31">
          <mxGeometry y="30" width="140" height="30" as="geometry" />
        </mxCell>
        <mxCell id="Y4HFZgV6K_6ebCtTfJm--33" value="Last name" style="text;align=left;verticalAlign=middle;spacingLeft=4;spacingRight=4;overflow=hidden;points=[[0,0.5],[1,0.5]];portConstraint=eastwest;rotatable=0;whiteSpace=wrap;html=1;" vertex="1" parent="Y4HFZgV6K_6ebCtTfJm--31">
          <mxGeometry y="60" width="140" height="30" as="geometry" />
        </mxCell>
        <mxCell id="Y4HFZgV6K_6ebCtTfJm--34" value="Username" style="text;strokeColor=none;fillColor=none;align=left;verticalAlign=middle;spacingLeft=4;spacingRight=4;overflow=hidden;points=[[0,0.5],[1,0.5]];portConstraint=eastwest;rotatable=0;whiteSpace=wrap;html=1;" vertex="1" parent="Y4HFZgV6K_6ebCtTfJm--31">
          <mxGeometry y="90" width="140" height="30" as="geometry" />
        </mxCell>
        <mxCell id="Y4HFZgV6K_6ebCtTfJm--40" value="Password" style="text;strokeColor=none;fillColor=none;align=left;verticalAlign=middle;spacingLeft=4;spacingRight=4;overflow=hidden;points=[[0,0.5],[1,0.5]];portConstraint=eastwest;rotatable=0;whiteSpace=wrap;html=1;" vertex="1" parent="Y4HFZgV6K_6ebCtTfJm--31">
          <mxGeometry y="120" width="140" height="30" as="geometry" />
        </mxCell>
        <mxCell id="Y4HFZgV6K_6ebCtTfJm--41" value="&lt;div&gt;Profile&lt;/div&gt;" style="text;strokeColor=none;fillColor=none;align=left;verticalAlign=middle;spacingLeft=4;spacingRight=4;overflow=hidden;points=[[0,0.5],[1,0.5]];portConstraint=eastwest;rotatable=0;whiteSpace=wrap;html=1;" vertex="1" parent="Y4HFZgV6K_6ebCtTfJm--31">
          <mxGeometry y="150" width="140" height="30" as="geometry" />
        </mxCell>
        <mxCell id="Y4HFZgV6K_6ebCtTfJm--42" value="Image" style="text;strokeColor=none;fillColor=none;align=left;verticalAlign=middle;spacingLeft=4;spacingRight=4;overflow=hidden;points=[[0,0.5],[1,0.5]];portConstraint=eastwest;rotatable=0;whiteSpace=wrap;html=1;" vertex="1" parent="Y4HFZgV6K_6ebCtTfJm--31">
          <mxGeometry y="180" width="140" height="30" as="geometry" />
        </mxCell>
        <mxCell id="Y4HFZgV6K_6ebCtTfJm--44" style="edgeStyle=orthogonalEdgeStyle;rounded=0;orthogonalLoop=1;jettySize=auto;html=1;exitX=0;exitY=0.5;exitDx=0;exitDy=0;entryX=0.5;entryY=1;entryDx=0;entryDy=0;" edge="1" parent="WIyWlLk6GJQsqaUBKTNV-1" source="Y4HFZgV6K_6ebCtTfJm--34" target="Y4HFZgV6K_6ebCtTfJm--11">
          <mxGeometry relative="1" as="geometry" />
        </mxCell>
        <mxCell id="Y4HFZgV6K_6ebCtTfJm--47" value="&lt;div&gt;Menu&lt;/div&gt;" style="rhombus;whiteSpace=wrap;html=1;" vertex="1" parent="WIyWlLk6GJQsqaUBKTNV-1">
          <mxGeometry x="70" y="95" width="90" height="90" as="geometry" />
        </mxCell>
        <mxCell id="Y4HFZgV6K_6ebCtTfJm--49" value="Success" style="text;html=1;strokeColor=none;fillColor=none;align=center;verticalAlign=middle;whiteSpace=wrap;rounded=0;" vertex="1" parent="WIyWlLk6GJQsqaUBKTNV-1">
          <mxGeometry x="180" y="110" width="60" height="30" as="geometry" />
        </mxCell>
        <mxCell id="Y4HFZgV6K_6ebCtTfJm--52" value="Failure" style="text;html=1;strokeColor=none;fillColor=none;align=center;verticalAlign=middle;whiteSpace=wrap;rounded=0;" vertex="1" parent="WIyWlLk6GJQsqaUBKTNV-1">
          <mxGeometry x="240" y="200" width="60" height="30" as="geometry" />
        </mxCell>
        <mxCell id="Y4HFZgV6K_6ebCtTfJm--60" value="" style="endArrow=none;dashed=1;html=1;rounded=0;" edge="1" parent="WIyWlLk6GJQsqaUBKTNV-1">
          <mxGeometry width="50" height="50" relative="1" as="geometry">
            <mxPoint x="230" y="250" as="sourcePoint" />
            <mxPoint x="230" y="140" as="targetPoint" />
          </mxGeometry>
        </mxCell>
        <mxCell id="Y4HFZgV6K_6ebCtTfJm--61" value="" style="endArrow=none;dashed=1;html=1;dashPattern=1 3;strokeWidth=2;rounded=0;" edge="1" parent="WIyWlLk6GJQsqaUBKTNV-1">
          <mxGeometry width="50" height="50" relative="1" as="geometry">
            <mxPoint x="230" y="250" as="sourcePoint" />
            <mxPoint x="320" y="250" as="targetPoint" />
          </mxGeometry>
        </mxCell>
        <mxCell id="Y4HFZgV6K_6ebCtTfJm--62" style="edgeStyle=orthogonalEdgeStyle;rounded=0;orthogonalLoop=1;jettySize=auto;html=1;exitX=0.767;exitY=0.961;exitDx=0;exitDy=0;entryX=0.271;entryY=0.993;entryDx=0;entryDy=0;entryPerimeter=0;exitPerimeter=0;" edge="1" parent="WIyWlLk6GJQsqaUBKTNV-1" source="Y4HFZgV6K_6ebCtTfJm--11" target="Y4HFZgV6K_6ebCtTfJm--13">
          <mxGeometry relative="1" as="geometry">
            <Array as="points">
              <mxPoint x="347" y="200" />
              <mxPoint x="457" y="200" />
            </Array>
          </mxGeometry>
        </mxCell>
      </root>
    </mxGraphModel>
  </diagram>
</mxfile>
